<?xml version="1.0" encoding="utf-8"?>
<!-- Generator: Adobe Illustrator 24.0.2, SVG Export Plug-In . SVG Version: 6.00 Build 0)  -->
<svg version="1.1" id="Layer_1" xmlns="http://www.w3.org/2000/svg" xmlns:xlink="http://www.w3.org/1999/xlink" x="0px" y="0px"
	 viewBox="0 0 170 170" style="enable-background:new 0 0 170 170;" xml:space="preserve">
<style type="text/css">
	.st0{clip-path:url(#SVGID_2_);}
	.st1{fill:#E55E04;}
	.st2{fill:none;}
	.st3{fill:#339933;}
</style>
<g>
	<defs>
		<rect id="SVGID_1_" x="-33.5" y="0.5" width="18" height="18"/>
	</defs>
	<clipPath id="SVGID_2_">
		<use xlink:href="#SVGID_1_"  style="overflow:visible;"/>
	</clipPath>
	<g class="st0">
		<path class="st1" d="M-19.7,13.5l-4.8,4.8l-4.8-4.8c-2.6-2.6-2.6-6.9,0-9.5s6.9-2.6,9.5,0C-17.1,6.6-17.1,10.9-19.7,13.5z
			 M-24.5,11.8c1.7,0,3-1.3,3-3c0-1.7-1.3-3-3-3c-1.7,0-3,1.3-3,3C-27.5,10.4-26.2,11.8-24.5,11.8z M-24.5,10.3
			c-0.8,0-1.5-0.7-1.5-1.5c0-0.8,0.7-1.5,1.5-1.5c0.8,0,1.5,0.7,1.5,1.5C-23,9.6-23.7,10.3-24.5,10.3z"/>
	</g>
</g>
<line class="st2" x1="-17.6" y1="24.3" x2="-35.6" y2="24.3"/>
<g>
	<path class="st3" d="M134.8,120.2L85,170l-49.8-49.8c-27.5-27.5-27.5-72.1,0-99.6s72.1-27.5,99.6,0
		C162.3,48.1,162.3,92.7,134.8,120.2z M85,101.7c17.3,0,31.3-14,31.3-31.3c0-17.3-14-31.3-31.3-31.3c-17.3,0-31.3,14-31.3,31.3
		C53.7,87.7,67.7,101.7,85,101.7z M85,86.1c-8.6,0-15.6-7-15.6-15.6c0-8.6,7-15.6,15.6-15.6s15.6,7,15.6,15.6
		C100.6,79.1,93.6,86.1,85,86.1z"/>
</g>
</svg>
