<svg id="Layer_1" data-name="Layer 1" xmlns="http://www.w3.org/2000/svg" xmlns:xlink="http://www.w3.org/1999/xlink" viewBox="0 0 15.75 15.75"><defs><style>.cls-1{fill:none;}.cls-2{clip-path:url(#clip-path);}.cls-3{fill:#393;}</style><clipPath id="clip-path" transform="translate(-1.5 -1.33)"><rect class="cls-1" y="0.58" width="18" height="18"/></clipPath></defs><title>icon-green-calendar-schedule-fill</title><g class="cls-2"><path class="cls-3" d="M5.25,1.33v1.5h-3a.75.75,0,0,0-.75.75v12a.76.76,0,0,0,.75.75H8.07a5.94,5.94,0,0,1-1.32-3.75,6,6,0,0,1,6-6A5.94,5.94,0,0,1,16.5,7.9V3.58a.75.75,0,0,0-.75-.75h-3V1.33h-1.5v1.5H6.75V1.33Zm12,11.25a4.5,4.5,0,1,1-4.5-4.5A4.5,4.5,0,0,1,17.25,12.58ZM12,9.58v3.31l1.72,1.72,1.06-1.06L13.5,12.27V9.58Z" transform="translate(-1.5 -1.33)"/></g></svg>