<svg xmlns="http://www.w3.org/2000/svg" viewBox="0 0 13 12.86"><defs><style>.cls-1{fill:#393;}</style></defs><title>phoneNoBg</title><g id="Layer_2" data-name="Layer 2"><g id="Layer_1-2" data-name="Layer 1"><g id="Layer_2-2" data-name="Layer 2"><g id="Layer_1-2-2" data-name="Layer 1-2"><path class="cls-1" d="M10.37,12.83c-.72-.19-1.45-.34-2.15-.59-4.47-1.62-7-4.93-8.1-9.44C-.14,1.73-.06.82,1.28.43c2.41-.71,2.93-.63,3.65.88.16.32.3.64.44,1,.77,1.8.73,2-.88,3.44L7,8.29a3.82,3.82,0,0,1,5.4.17h0a4.26,4.26,0,0,1,.59.82v.53a10,10,0,0,0-.56,1.36C12.2,12.36,11.6,13,10.37,12.83ZM8.94,8c-1.6,1.71-1.65,1.72-3.41.23A9.87,9.87,0,0,1,4.4,7.12c-1.4-1.6-1.4-1.61.21-3,.06,0,.08-.15.12-.23C3.5.35,3.88.83,1.18,1.69,1,6.1,6.6,12,11.07,11.67,12.11,9.09,12.11,9.09,8.94,8Z"/></g></g></g></g></svg>